<!DOCTYPE svg PUBLIC "-//W3C//DTD SVG 1.1//EN" "http://www.w3.org/Graphics/SVG/1.1/DTD/svg11.dtd">
<!-- Uploaded to: SVG Repo, www.svgrepo.com, Transformed by: SVG Repo Mixer Tools -->
<svg width="800px" height="800px" viewBox="0 0 16 16" xmlns="http://www.w3.org/2000/svg" fill="#000000">
<g id="SVGRepo_bgCarrier" stroke-width="0"/>
<g id="SVGRepo_tracerCarrier" stroke-linecap="round" stroke-linejoin="round"/>
<g id="SVGRepo_iconCarrier"> <path d="m 7 0 c -1 0 -1 1 -1 1 v 1 h -1 s -0.707031 -0.011719 -1.445312 0.355469 c -0.742188 0.371093 -1.554688 1.3125 -1.554688 2.644531 v 8 s -0.015625 0.707031 0.355469 1.449219 c 0.371093 0.738281 1.3125 1.550781 2.644531 1.550781 h 6 s 0.707031 0.015625 1.449219 -0.355469 c 0.738281 -0.371093 1.550781 -1.3125 1.550781 -2.644531 v -8 c 0 -1.332031 -0.8125 -2.273438 -1.550781 -2.644531 c -0.742188 -0.371094 -1.449219 -0.355469 -1.449219 -0.355469 h -1 v -1 s 0 -1 -1 -1 z m 4 4 c 0.554688 0 1 0.445312 1 1 v 8 c 0 0.554688 -0.445312 1 -1 1 h -6 c -0.554688 0 -1 -0.445312 -1 -1 v -8 c 0 -0.554688 0.445312 -1 1 -1 z m 0 0" fill="#1F1F28"/> <path class="warning" d="m 5 11 v 2 h 6 v -2 z m 0 0" fill="#C8C093"/> </g>
</svg>